<mxfile host="Electron" agent="Mozilla/5.0 (X11; Linux x86_64) AppleWebKit/537.36 (KHTML, like Gecko) draw.io/24.7.8 Chrome/128.0.6613.36 Electron/32.0.1 Safari/537.36" version="24.7.8">
  <diagram name="Page-1" id="8ygVgKS2C3aUO1lQIzyz">
    <mxGraphModel dx="2022" dy="1203" grid="1" gridSize="10" guides="1" tooltips="1" connect="1" arrows="1" fold="1" page="1" pageScale="1" pageWidth="850" pageHeight="1100" math="0" shadow="0">
      <root>
        <mxCell id="0" />
        <mxCell id="1" parent="0" />
        <mxCell id="9AXBvBu898958EGjWWhA-10" style="edgeStyle=orthogonalEdgeStyle;rounded=0;orthogonalLoop=1;jettySize=auto;html=1;exitX=1;exitY=0.5;exitDx=0;exitDy=0;entryX=0;entryY=0.5;entryDx=0;entryDy=0;fillColor=#ffe6cc;strokeColor=#d79b00;" edge="1" parent="1" source="9AXBvBu898958EGjWWhA-1" target="9AXBvBu898958EGjWWhA-2">
          <mxGeometry relative="1" as="geometry" />
        </mxCell>
        <mxCell id="9AXBvBu898958EGjWWhA-1" value="Start" style="ellipse;whiteSpace=wrap;html=1;aspect=fixed;fillColor=#ffe6cc;strokeColor=#d79b00;" vertex="1" parent="1">
          <mxGeometry x="30" y="480" width="80" height="80" as="geometry" />
        </mxCell>
        <mxCell id="9AXBvBu898958EGjWWhA-11" style="edgeStyle=orthogonalEdgeStyle;rounded=0;orthogonalLoop=1;jettySize=auto;html=1;exitX=1;exitY=0.5;exitDx=0;exitDy=0;entryX=0;entryY=0.5;entryDx=0;entryDy=0;fillColor=#ffe6cc;strokeColor=#d79b00;" edge="1" parent="1" source="9AXBvBu898958EGjWWhA-2" target="9AXBvBu898958EGjWWhA-3">
          <mxGeometry relative="1" as="geometry" />
        </mxCell>
        <mxCell id="9AXBvBu898958EGjWWhA-2" value="Create body" style="rounded=0;whiteSpace=wrap;html=1;fillColor=#ffe6cc;strokeColor=#d79b00;" vertex="1" parent="1">
          <mxGeometry x="160" y="490" width="120" height="60" as="geometry" />
        </mxCell>
        <mxCell id="9AXBvBu898958EGjWWhA-12" style="edgeStyle=orthogonalEdgeStyle;rounded=0;orthogonalLoop=1;jettySize=auto;html=1;exitX=1;exitY=0.5;exitDx=0;exitDy=0;entryX=0;entryY=0.5;entryDx=0;entryDy=0;fillColor=#ffe6cc;strokeColor=#d79b00;" edge="1" parent="1" source="9AXBvBu898958EGjWWhA-3" target="9AXBvBu898958EGjWWhA-4">
          <mxGeometry relative="1" as="geometry" />
        </mxCell>
        <mxCell id="9AXBvBu898958EGjWWhA-3" value="Import STEP file" style="rounded=0;whiteSpace=wrap;html=1;fillColor=#ffe6cc;strokeColor=#d79b00;" vertex="1" parent="1">
          <mxGeometry x="340" y="490" width="120" height="60" as="geometry" />
        </mxCell>
        <mxCell id="9AXBvBu898958EGjWWhA-13" style="edgeStyle=orthogonalEdgeStyle;rounded=0;orthogonalLoop=1;jettySize=auto;html=1;exitX=0.5;exitY=1;exitDx=0;exitDy=0;entryX=0.5;entryY=0;entryDx=0;entryDy=0;fillColor=#ffe6cc;strokeColor=#d79b00;" edge="1" parent="1" source="9AXBvBu898958EGjWWhA-4" target="9AXBvBu898958EGjWWhA-5">
          <mxGeometry relative="1" as="geometry" />
        </mxCell>
        <mxCell id="9AXBvBu898958EGjWWhA-4" value="Generate mesh" style="rounded=0;whiteSpace=wrap;html=1;fillColor=#ffe6cc;strokeColor=#d79b00;" vertex="1" parent="1">
          <mxGeometry x="520" y="490" width="120" height="60" as="geometry" />
        </mxCell>
        <mxCell id="9AXBvBu898958EGjWWhA-14" style="edgeStyle=orthogonalEdgeStyle;rounded=0;orthogonalLoop=1;jettySize=auto;html=1;exitX=1;exitY=0.5;exitDx=0;exitDy=0;entryX=0;entryY=0.5;entryDx=0;entryDy=0;fillColor=#ffe6cc;strokeColor=#d79b00;" edge="1" parent="1" source="9AXBvBu898958EGjWWhA-5" target="9AXBvBu898958EGjWWhA-6">
          <mxGeometry relative="1" as="geometry" />
        </mxCell>
        <mxCell id="9AXBvBu898958EGjWWhA-5" value="Define mesh groups" style="rounded=0;whiteSpace=wrap;html=1;fillColor=#ffe6cc;strokeColor=#d79b00;" vertex="1" parent="1">
          <mxGeometry x="160" y="600" width="120" height="60" as="geometry" />
        </mxCell>
        <mxCell id="9AXBvBu898958EGjWWhA-15" style="edgeStyle=orthogonalEdgeStyle;rounded=0;orthogonalLoop=1;jettySize=auto;html=1;exitX=1;exitY=0.5;exitDx=0;exitDy=0;entryX=0;entryY=0.5;entryDx=0;entryDy=0;fillColor=#ffe6cc;strokeColor=#d79b00;" edge="1" parent="1" source="9AXBvBu898958EGjWWhA-6" target="9AXBvBu898958EGjWWhA-7">
          <mxGeometry relative="1" as="geometry" />
        </mxCell>
        <mxCell id="9AXBvBu898958EGjWWhA-6" value="Re-generate the mesh" style="rounded=0;whiteSpace=wrap;html=1;fillColor=#ffe6cc;strokeColor=#d79b00;" vertex="1" parent="1">
          <mxGeometry x="340" y="600" width="120" height="60" as="geometry" />
        </mxCell>
        <mxCell id="9AXBvBu898958EGjWWhA-16" style="edgeStyle=orthogonalEdgeStyle;rounded=0;orthogonalLoop=1;jettySize=auto;html=1;exitX=1;exitY=0.5;exitDx=0;exitDy=0;entryX=0;entryY=0.5;entryDx=0;entryDy=0;fillColor=#ffe6cc;strokeColor=#d79b00;" edge="1" parent="1" source="9AXBvBu898958EGjWWhA-7" target="9AXBvBu898958EGjWWhA-9">
          <mxGeometry relative="1" as="geometry" />
        </mxCell>
        <mxCell id="9AXBvBu898958EGjWWhA-7" value="Export the mesh&lt;br&gt;&lt;div&gt;and check&lt;/div&gt;" style="rounded=0;whiteSpace=wrap;html=1;fillColor=#ffe6cc;strokeColor=#d79b00;" vertex="1" parent="1">
          <mxGeometry x="520" y="600" width="120" height="60" as="geometry" />
        </mxCell>
        <mxCell id="9AXBvBu898958EGjWWhA-9" value="Next step" style="ellipse;whiteSpace=wrap;html=1;aspect=fixed;fillColor=#ffe6cc;strokeColor=#d79b00;" vertex="1" parent="1">
          <mxGeometry x="700" y="590" width="80" height="80" as="geometry" />
        </mxCell>
      </root>
    </mxGraphModel>
  </diagram>
</mxfile>
